<?xml version="1.0" encoding="utf-8"?>
<!-- Generator: Adobe Illustrator 15.0.0, SVG Export Plug-In . SVG Version: 6.00 Build 0)  -->
<!DOCTYPE svg PUBLIC "-//W3C//DTD SVG 1.0//EN" "http://www.w3.org/TR/2001/REC-SVG-20010904/DTD/svg10.dtd">
<svg version="1.0" id="Layer_1" xmlns="http://www.w3.org/2000/svg" xmlns:xlink="http://www.w3.org/1999/xlink" x="0px" y="0px"
	 width="250px" height="750px" viewBox="0 0 250 750" enable-background="new 0 0 250 750" xml:space="preserve">
<g>
	<path fill="#EDDDD6" d="M106.5,102.125c0,0,0.375-1.875-1-6.875s-7.875-12.625-10.25-17.875S88.5,58.5,90.875,51.75
		s11-19.625,19.625-23.375s22.375-7.625,30.25-4.5s14.75,9.25,17,16.125s2.25,10.375,3.5,12.5s2.5,3.5,1.375,6.375
		s-1.5,2.125-1.125,5.5s1.375,5,1.125,11s-1.25,6-1.5,8.5s-0.5,6.125-0.375,8.25s-0.75,5.625-1,10s-2.625,6-3.875,6.875
		s-4.875,2.708-6.958,2.667c-1.911-0.038-14.792-2.417-21.167-6.417s-4.5-3.5-10.75-4.5S106.5,102.125,106.5,102.125z"/>
	<path fill="#EDDDD6" d="M106.5,102.125c0,0,0.5,18.375-4.25,25.625S77.5,149.5,66.75,155s-22,11.5-23.25,20.75s-3.75,32.5-2,41.25
		s2.5,8.5,1.5,18s-1.5,27.5-0.5,34.25S41,281,39,285.25s-4.25,17.25-4.25,24s-1.75,9-2.5,17s-1,18.75-0.75,27.25s-0.25,13-0.75,21
		s-2.75,13-3,20s1.75,15,3.25,21.75s2.5,9,4.25,10.5s5.25,5,7.75,5.5s4-0.25,6.25,0s8,1.5,10.5,2.25s3,0.25,3.75-0.25
		s3.75-1.792,3.75-3.292c0,0-2-0.333-2.5-0.208c-3.01,0.753-4.25-1.5-6.25-2.75c-0.441-0.276-0.846-0.662-1.217-1.117
		c-1.31-1.604-2.198-4.074-2.783-5.633c-0.75-2-1.25-3.75-1.25-3.75s3.25,6.5,5.5,8.5s2.25,4,5,3.5s3.25-0.25,2.5-2s-0.5-3.75-1-5
		s-1.75-3.5-3-5.5s-3.25-7.5-3.5-10s-1.25-4.75-3.5-7s-6.5-4.25-7.5-5.25s-2-9-1.75-11s14.5-36.25,18.5-48.25s5.5-22.25,7.5-29.75
		s-0.25-13.75-0.25-17s1-27.75,2.25-31.5s-0.25-14.5-0.5-22s-0.75-8.5-0.75-16.5s0-9.25,0-9.25L75,246.75c0,0,0,2.75,2.75,5.5
		s2,13.75,3.25,19.25s3.5,10,2.75,14.25s-5.25,16.75-6,21s-2.25,15.5-2.75,21s-2,13.75-2.25,26.75s-0.75,58.5,3,78.75
		s5.75,29,9,49.25s2,33.25,2.75,39.75S86,538.75,84,545.5s-3.25,16.75-3.5,28s2,37,5,51.5s4,23.25,5.5,30.5s-1.25,9.25-2.25,12.75
		s0,6,0.75,8.5s0.5,8.25-0.75,13S86.75,696,84,699s-3.25,7-4,9.75s-2.25,7,2.5,9.5S96,721.5,104.25,721s11.75,0,12.75-3.5
		s-1.5-5-1.75-5.75s0.5-2.75,0.25-5.75s-1.75-5.25-2-7c0,0,1-2.5,0.25-8.5s-1.5-8-1-11s1.25-4,1.5-7.75S111,668,111,658.25
		s1-26.75,4.75-37.5s9-31.5,9.25-43S121.25,557,122,548s5.25-15,7.25-20.25s3.5-6,2.75-15.75s-1.5-21.5-0.25-31.75
		s4-33.25,6.25-41.75s2.25-14.5,2.25-19.5s0-9.5,0-9.5s2.25,19.25,5,30.25s7.5,36.75,8.5,46.25s-0.75,15.25,1.5,27.5
		s9.25,17.25,9.75,27.25s-1.75,21.25,0,34S173,607,175.75,617s6,26.25,5,32.25s-2,8.5-1.75,11.25s1.5,11,2.25,14.5
		s1.75,8.5,2.25,10.25s3.75,7.25,4.5,10s-0.5,7.75,1.5,9.5s4.5,3.75,6.5,6.75s6.25,1.75,7.75,1.5s12.75-3,16.5-4.5
		s5.25-4.25,5.75-7.75s-0.25-2.25-2.25-3.5S222,694,219.25,692s-6.75-4.25-8.5-7.75s-2.25-5.25-3.5-8s-4-3.75-3.75-5.75
		s0.5-3.75,0.5-7s-2.5-7.5-2.75-10.5s1-19.75,3-29.5s2.75-30,2.25-47s1.307-14.022-0.693-23.272s-6.75-20.25-6.75-26
		S203.25,458,205,447.75s2.75-52.5,1.75-62.75s-6.75-37.25-8.25-46s-4.25-26.75-5-35s-5.75-19.5-6-24s2.25-28.75,2-34.75
		s0.25-19.5,0.25-25s0-7.75,1-9.75s1.5-7.25,1.5-7.25s0,5-0.75,8.5s-1.25,24.25-1.25,26s0.75,15.25,0,19.25s-1,5.25-1,5.25
		s5.75,10,6,14.75S194,290.75,195,295.25s3.5,16.25,7.5,24.5s5.5,16.75,7.25,21.75s3.25,14.5,5.75,21.25s4.5,12.5,3.25,17
		s-5,7-6,10.25s-1.25,9-0.75,14s-0.75,10.5-1,13.25s0.75,5.5,1.25,6.5s2.75,2,4.5,0.25s3.75-4.25,4-8.75s0-8.25,0.75-8.25
		s2,2.5,2,2.5s0,4.25,0,6s0.25,5,0.5,6.75s0,3.5-3.75,3.25s-2.5-1.5-6,1.5s-4.75,2.75-3.25,4s5.75,2,5.75,2s1.5,0.75,0,2.75
		s1.25,5,1.25,5s3-2.5,5.25-5s3.75-3.5,5.75-3.75s5.25-3.75,6.25-4.75S238,426,238,423.5s1.25-8,1.75-10s0.5-6-0.5-12.5
		s-2.5-16-2.25-19s0-4.75-0.25-6.25s-0.5-3.75-1.25-8.25s-1.5-29.25-1.25-34.75S233,307,232.5,301.5s-2-14.75-4.75-21.5
		s-6-10-7.5-15.75s-2-16.75-3.25-24s-2.5-10.5-3.75-17s1.5-15.25,0.25-26.25s-4-29-11.25-33s-15.25-8.5-18.75-9.25
		s-8.25-2.75-10.75-4s-19-12.75-20-14.5s-2.5-11.5-2.25-17.5s-0.083-7.5-0.083-7.5s-25.917-6.75-27.417-10s-10.25-3-12.75-2.25
		S106.5,102.125,106.5,102.125z"/>
</g>
<path fill="#D1BFB6" d="M148.625,70.25c0,0-3.75,1.25-3.75,5.625C142.875,74,144.125,69.75,148.625,70.25z"/>
<path fill="#C7AB9D" d="M151,73.5c-0.5-0.313-1.25-0.375-2,0.5s-0.375,1.5-0.375,1.5c1.25,0.125,2.5,0.313,3.125,0.063
	S151.5,73.813,151,73.5z"/>
<path fill="#3C2415" d="M99.688,34.875c2.625-2.75,11.502-11.283,24.375-12.313c9.375-0.75,14.553,0.225,19.031,1.969
	c4.094,1.594,6.271,3.347,7.344,4.74c1.666,2.167-0.229,2.188-1.688,2.229c-1.274,0.036-10.202-1.788-12.375-2
	c-5.125-0.5-13.125-0.375-16.75,0.75c-4.458,1.383-5.25,5-5.625,6.75s0.75,3.625,2,4.375s-0.625,3.375-0.25,6.75
	s0.5,4.625,1.875,6.375s-5.875,5.875-5.625,9.375s0.395,4.817,0.792,6.042c0.5,1.542,0.708,2.042,0.708,2.042l-4.375,1.667
	c0,0-1.25-3.75-1.5-5.375c-0.235-1.528-2.125-1-3.75-1.625c-1.201-0.462-2-0.875-4.5-1.25c-2.229-0.334-4.25,1.375-4.625,4.375
	s0.252,5.613,1.25,7.75c0.875,1.875,1.75,5.125,3.75,7.25c1.69,1.795,2.375,1.875,3.5,3.625s1.875,4.25,2.375,6.625
	s1,3.5,0.875,4.375s-0.375,1.5-0.375,1.5s-3.5-9.375-8-14.875s-4.375-8.625-5.375-13s-4.5-16.875-2.375-23.375
	S97.063,37.625,99.688,34.875z"/>
<path fill="#FFFFFF" d="M140.875,60.5c0,0-2.5-3.25-4.75-3.25s-3.5,0.938-4.438,1.5c-0.852,0.511-2.125,1.688-2.125,1.688
	s1.397,0.595,2.313,0.813c1.313,0.313,3.168,0.78,4.563,0.688C139.25,61.75,140.875,60.5,140.875,60.5z"/>
<linearGradient id="SVGID_1_" gradientUnits="userSpaceOnUse" x1="140.0234" y1="333.5054" x2="140.0234" y2="689.0776">
	<stop  offset="0" style="stop-color:#041C3E"/>
	<stop  offset="0.1822" style="stop-color:#021A3B"/>
	<stop  offset="1" style="stop-color:#001233"/>
</linearGradient>
<path fill="url(#SVGID_1_)" d="M72.734,339.146l-0.25,2.125c0,0-1.75-0.916-2.417,9.75c-0.281,4.494,2.667,7.5,1.167,9.5
	s-0.083,40.917,1.917,46.917s0.627,23.658,1.25,27.084c2,11,10.167,64.999,9.667,69.499s-2.5,9-2.5,15s4.5,4,3.5,8s-5,24.5-5,28.5
	s-3,21.167,2,56.667s5.333,33.5,4.333,45s-1.427,10.403-2.833,17.333c-2.333,11.501-3.196,13.195,1.333,12.834
	c1.607-0.128,2.297,1.531,5.667,1.666c12.5,0.5,17.12-2.535,19.833-3.333c2.833-0.833,0.667-2.666,5.167-4.333
	c0.884-0.327,0.382-10.981-0.068-21.021c-0.5-11.167,0.333-20,1-27c0.484-5.076,2.761-19.291,3.901-20.812
	c2-2.667,8-39,5.167-53.001c-0.8-3.951,4-12.499,1-16.833c-1.318-1.903,6.523-16.828,7.5-21.833
	c1.333-6.833-2.944-14.753-0.667-29.333c0.833-5.333,4.331-37.682,5.999-53.333c0.195-1.83,9.001,20.499,11.001,36.999
	s1.333,33.833,5.333,43.833s8.5,17.501,6.334,20.5c-1.273,1.762-2.34,4.492-0.5,6.667c1.832,2.167,3,2,1.5,11.333
	c-0.81,5.034,1.423,24.433,6.666,42.667c5.266,18.313,4.099,24.646,5.766,33.979c1.298,7.264,2.4,13.521,1.9,24.021
	s0.273,10.814-0.5,21.667c-0.076,1.078,10.605,2.541,17.543,1.979c3.197-0.259,7.125-1.563,8.625-2.146c4.332-1.685,2.332-4,5.334-5
	c1.955-0.651,2.832-1.334-1.668-10.501c-3.744-7.63-3.9-21.009-2.166-34.499c3-23.333,4-40.333,3-50.333s0.42-13.337,0.332-14.333
	c-1.666-19.167-3.025-20.272-3.525-25.772s1-11.834-3-15.001c-1.961-1.552,0.561-10.371,1.332-12c3-6.333-0.5-5.5,1.334-15.5
	c1.098-5.983,3.193-62.728,3.693-71.728s0.25-47.75-1.75-55.75s-3-17.75-4.125-20.25c-1.025-2.28-0.404-8.143-1.375-10.5
	c-0.875-2.125-0.5-4.875-1.5-5c-3.508-0.438-14.678,8.132-37.25,9c-26,1-38.916,0.252-53.083-1.249s-21.705-0.458-26.917-1.501
	c-3.125-0.625-7.75-4.875-8.875-6C72.409,333.321,72.734,339.146,72.734,339.146z"/>
<g opacity="0.75">
	<linearGradient id="SVGID_2_" gradientUnits="userSpaceOnUse" x1="149.6367" y1="83.9277" x2="148.8195" y2="89.7427">
		<stop  offset="0" style="stop-color:#F3DAD8"/>
		<stop  offset="0.2229" style="stop-color:#F2D0D2"/>
		<stop  offset="0.4242" style="stop-color:#F2CDD0"/>
		<stop  offset="1" style="stop-color:#E3C1C4"/>
	</linearGradient>
	<path fill="url(#SVGID_2_)" d="M141.531,88.719c0,0,6.219-5.219,8.594-4.719s4.125,0.375,4.625,1.5s1.375,3.125,1.5,4.125
		s-2.125-1.625-3.625-1.75s-2.625-0.5-4.125-0.25S141.531,88.719,141.531,88.719z"/>
	<linearGradient id="SVGID_3_" gradientUnits="userSpaceOnUse" x1="148.6885" y1="92.124" x2="148.8454" y2="87.6307">
		<stop  offset="0" style="stop-color:#F3DAD8;stop-opacity:0.55"/>
		<stop  offset="0.2229" style="stop-color:#F2D0D2;stop-opacity:0.7864"/>
		<stop  offset="0.4242" style="stop-color:#F2CDD0"/>
		<stop  offset="1" style="stop-color:#E3C1C4"/>
	</linearGradient>
	<path fill="url(#SVGID_3_)" d="M145.5,88.219c1.375-0.25,3.811-0.672,4.469-0.531c1.313,0.281,2,0.188,2.813,0.313
		s3.281,2.063,3.281,2.063s-3.156,2.344-6.281,2.094s-8.281-3.281-8.281-3.281S144.195,88.456,145.5,88.219z"/>
</g>
<path fill="#3C2415" d="M181.75,667.5c-2.25,0.25-2.5,11.5-2.5,11.5c0.75,7.5-0.25,9,1.25,11.25s4.25,5.25,4.75,7.5
	c0.982,4.42,2.75,9.25,6.25,12.5c4.524,4.201,7.619,5.153,18,6.75c9.75,1.5,19.75,1.75,20.25-7.25c0.402-7.239-2.75-11.5-5.75-14.75
	s-5.25-4.25-9.5-8.75s-4.5-7.25-6.75-11s-5-8.25-8-8S184,667.25,181.75,667.5z"/>
<path fill="#3C2415" d="M86,673c-1.25,1.75-0.25,12.25-1,15.75s-8.25,13-8.25,19.75s9,20.5,20.25,20.25s21.5-9,22-15.5
	c0.271-3.525-4.5-22.25-4.75-28.25s-1.25-11.75-3.75-12.25S87.25,671.25,86,673z"/>
<path fill="#414042" d="M147.553,349.42c-0.307,0.98-0.614,2.76,0.429,3.618c1.042,0.858,1.671-0.5,1.839-1.227
	c0.184-0.797,0.184-1.839-0.307-2.759C149.023,348.132,147.859,348.439,147.553,349.42z"/>
<path d="M147.672,349.109c-0.789,0.902-0.703,2.328-0.297,3.224c0.293,0.645,1.396,1.255,0.797,0.542
	c-0.813-0.969-1.137-2.275-0.422-3.406C148.125,348.875,148.438,348.234,147.672,349.109z"/>
<path fill="#6D6E71" d="M148.734,350.313c-0.125,0.047,0,0.125,0.047,0.344s-0.125,0.453-0.063,0.516s0.25-0.297,0.234-0.453
	S148.734,350.313,148.734,350.313z"/>
<path fill="#001233" d="M132.906,347.016c0.047-0.344,0.234-0.302,0.203,0.125s-0.016,1.567,0.047,1.807s0.188,0.615,0.125,1.271
	s-1.563,9.813-1.688,10.406s-0.234,0.5-0.313,0.922c-0.069,0.374-0.125,0.547-0.219,0.797s-0.313,0.469-0.25,0.094
	s0.125-0.594,0.203-1c0.066-0.343,0.156-0.828,0.25-1.141s1.375-8.813,1.469-9.406s0.109-1.625,0.109-2
	S132.859,347.359,132.906,347.016z"/>
<path fill="#6D6E71" d="M149.781,349.688c0.234,0.594,0.156,1.438,0.125,1.563s-0.094,1.234-0.703,1.828s-1.069,0.034-1.219-0.172
	c-0.5-0.688-0.719-1.313-0.734-1.922s0.094-0.922,0.219-1.266s0.516-1.156,1.156-1.234S149.547,349.094,149.781,349.688z
	 M148.662,348.528c-0.506,0.097-0.891,0.827-1.006,1.159c-0.115,0.332-0.28,0.666-0.266,1.254s0.24,1.176,0.703,1.84
	c0.139,0.199,0.561,0.745,1.125,0.172c0.563-0.573,0.6-1.635,0.628-1.755s0.101-0.935-0.115-1.508
	C149.514,349.117,149.248,348.417,148.662,348.528z"/>
<path fill="#001233" d="M139.333,436.668c1.001-10.168,4.167-10.001,4.834-18.001c0.091-1.085,0.235-2.124,0.423-3.128
	c1.189-6.393,4.046-11.322,4.91-17.372c1-7,0-20.209-1.5-25.542s-0.459-9.667-0.625-13.5S145.5,353,145.5,350.167
	s-0.166-1,0.5-2.667s-1.084-0.854-1.25,0.313s-0.25,4.188,0.084,6.021c0.333,1.833,0.666,12.5,1,15.5
	c0.333,3,1.166,2.333,2.333,12.833s1.666,12.833,0.333,18.5s-6.667,21.167-8.5,26.5S132.667,441,131.667,447.5
	s-2.833,21.667-3.333,36.334s-3.501,28.501-1.334,24.667s4.334-6.667,5.167-10.667s1-8.5,1.667-13c0.666-4.5,2.166-19,2.5-22
	C136.667,459.834,139.333,436.668,139.333,436.668z"/>
<g>
	<path fill="#001233" d="M157.561,345.621c-0.014-0.347,0.178-0.339,0.223,0.087c0.045,0.426,0.26,1.545,0.364,1.771
		c0.104,0.225,0.292,0.572,0.347,1.229c0.055,0.657,0.488,8.951,0.471,9.558c-0.02,0.606-0.144,0.533-0.146,0.962
		c-0.002,0.38-0.326,1.543-0.374,1.806s-0.226,0.517-0.229,0.136c-0.004-0.38,0.318-1.589,0.323-2.003
		c0.005-0.35,0.008-0.843,0.046-1.167c0.037-0.324-0.498-7.934-0.51-8.535s-0.179-1.619-0.244-1.988
		C157.764,347.108,157.576,345.967,157.561,345.621z"/>
	<path fill="#10294D" d="M158.422,348.065c-0.02,0.194,0.064,0.422,0.072,0.643s0.498,9.712,0.443,9.943
		c-0.053,0.232-0.151,0.218-0.119,0.577c0.033,0.359-0.326,1.893-0.459,2.043c-0.131,0.151,0.15-0.047,0.264-0.48
		s0.239-1.836,0.428-2.043c0.229-0.253-0.318-9.317-0.135-9.414c0.917-0.48,1.174-0.645,1.793-0.75
		c1.244-0.213,0.69-0.849,0.25-0.833c-0.442,0.015-0.811,0.09-1.328,0.214c-0.518,0.125-0.95,0.011-0.95,0.011
		S158.439,347.871,158.422,348.065z"/>
</g>
<path fill="#10294D" d="M133.322,349.573c-0.052,0.188-0.01,0.427-0.041,0.646S131.594,360.781,131.5,361s-0.188,0.188-0.219,0.547
	s-0.188,0.891-0.344,1.016s0.156-0.021,0.344-0.427s0.091-0.851,0.313-1.021c0.271-0.208,1.698-10.479,1.896-10.542
	c0.986-0.312,1.069-0.141,1.697-0.136c1.428,0.011,1.156-0.531,0.719-0.594s-0.844-0.188-1.375-0.156s-0.938-0.156-0.938-0.156
	S133.375,349.386,133.322,349.573z"/>
<g>
	<defs>
		<path id="SVGID_4_" d="M76.833,709.667c0,0,6.585,16.168,19.333,16.458c7.333,0.167,12.417-2.501,17.083-6.417
			s5.677-7.125,5.594-8.708s6.073-27.416-4.093-26.833s-60.333,1.332-64,3.166C48.115,688.651,76.833,709.667,76.833,709.667z"/>
	</defs>
	<clipPath id="SVGID_5_">
		<use xlink:href="#SVGID_4_"  overflow="visible"/>
	</clipPath>
	<radialGradient id="SVGID_6_" cx="97.8809" cy="700.3809" r="25.0147" gradientUnits="userSpaceOnUse">
		<stop  offset="0" style="stop-color:#3C2415"/>
		<stop  offset="0.1168" style="stop-color:#3C2415"/>
		<stop  offset="0.8061" style="stop-color:#3C2415"/>
		<stop  offset="0.8528" style="stop-color:#3A2211;stop-opacity:0.8844"/>
		<stop  offset="0.9012" style="stop-color:#331C05;stop-opacity:0.7646"/>
		<stop  offset="0.9503" style="stop-color:#260F00;stop-opacity:0.6429"/>
		<stop  offset="0.9998" style="stop-color:#0E0100;stop-opacity:0.5206"/>
		<stop  offset="1" style="stop-color:#0E0100;stop-opacity:0.52"/>
	</radialGradient>
	<path clip-path="url(#SVGID_5_)" fill="url(#SVGID_6_)" d="M86,673c-1.25,1.75-0.25,12.25-1,15.75s-8.25,13-8.25,19.75
		s9,20.5,20.25,20.25s21.5-9,22-15.5c0.271-3.525-4.5-22.25-4.75-28.25s-1.25-11.75-3.75-12.25S87.25,671.25,86,673z"/>
</g>
<linearGradient id="SVGID_7_" gradientUnits="userSpaceOnUse" x1="105.4702" y1="136.8335" x2="105.4702" y2="87.3286">
	<stop  offset="0" style="stop-color:#EDDDD6"/>
	<stop  offset="0.2993" style="stop-color:#EBDAD3;stop-opacity:0.8354"/>
	<stop  offset="0.5377" style="stop-color:#E4D1C8;stop-opacity:0.7043"/>
	<stop  offset="0.7551" style="stop-color:#D9C3B8;stop-opacity:0.5847"/>
	<stop  offset="0.9588" style="stop-color:#CBB0A2;stop-opacity:0.4727"/>
	<stop  offset="1" style="stop-color:#C7AB9D;stop-opacity:0.45"/>
</linearGradient>
<path opacity="0.75" fill="url(#SVGID_7_)" d="M93.083,136.833c0,0,7.917-5.583,9.75-10.667s3.917-16.667,3.667-20.917
	S106.333,99,106.333,99s-0.667-7.417-3.667-11.583c-0.325-0.452,1.937,0.965,3.333,1.167c2.226,0.321,3.978-0.463,4-0.417
	c2.083,4.25,4.207,8.64,5.75,11c2.833,4.333,2.583,2.167,0.583,5.917c-0.988,1.852-6.917,13.667-8.667,16.917
	c-1.3,2.414-4.167,6.75-8.083,10.083c-3.81,3.242-6.417,4.417-6.417,4.417"/>
<path fill="#2A1402" d="M84.917,688.917c0,0,0.334-1.208,0.292-2.333s28.541-5.084,28.708-5.042s0.292,1.438,0.292,2.5
	c0,1.125-1.521,1.376-1.958,1.959c-0.5,0.667-3,1.625-7.792,3s-16.792,1.457-17.708,0.916S84.917,688.917,84.917,688.917z"/>
<g>
	<defs>
		<path id="SVGID_8_" d="M101,334c0,0,4,103.334,4.667,126.667s10,82.667,0.667,88S89,564.668,95,563.334s11.645-8.546,10,0.666
			c-1.25,7-7.25,11.75-0.667,9.334c6.885-2.526-1.333,33.541-3.208,54.791c-0.822,9.321,1.566,58.901,4.25,40
			c3.542-24.949,4.083-33.584,5.5-42.375c2.551-15.824,11.625-56.875,11.625-56.875s2.845-12,4.25-15.625
			c2.375-6.125,2.917,28.75,1.584,37.417C127,599.334,123,663.333,123,670s13.334,5.334-1.333,14.667S90.333,706.668,77,695.334
			S73.667,672,72.333,648s-6-105.999-2.667-120.666S62.333,472,63,444.667s-6-104.667-5.333-110S90.333,324,90.333,324L101,334z"/>
	</defs>
	<clipPath id="SVGID_9_">
		<use xlink:href="#SVGID_8_"  overflow="visible"/>
	</clipPath>
	<path clip-path="url(#SVGID_9_)" fill="#001233" d="M72.75,339.084l-0.25,2.125c0,0-1.75-0.916-2.417,9.75
		c-0.281,4.494,2.667,7.5,1.167,9.5s-0.083,40.917,1.917,46.917s0.627,23.658,1.25,27.084c2,11,10.167,64.999,9.667,69.499
		s-2.5,9-2.5,15s4.5,4,3.5,8s-5,24.5-5,28.5s-3,21.167,2,56.667s5.333,33.5,4.333,45s-1.427,10.403-2.833,17.333
		c-2.333,11.501-3.196,13.195,1.333,12.834c1.607-0.128,2.297,1.531,5.667,1.666c12.5,0.5,17.12-2.535,19.833-3.333
		c2.833-0.833,0.667-2.666,5.167-4.333c0.884-0.327-0.667-7.5-1.667-17.5s0-29,1-34s4.36-15.813,5.5-17.333
		c2-2.667,8-39,5.167-53.001c-0.8-3.951,4-12.499,1-16.833c-1.318-1.903,6.523-16.828,7.5-21.833
		c1.333-6.833-2.944-14.753-0.667-29.333c0.833-5.333,4.331-37.682,5.999-53.333c0.195-1.83,9.001,20.499,11.001,36.999
		s1.333,33.833,5.333,43.833s8.5,17.501,6.334,20.5c-1.273,1.762-2.34,4.492-0.5,6.667c1.832,2.167,3,2,1.5,11.333
		c-0.81,5.034,0.666,24.667,6.666,42.667s5.945,30.001,8,36.167c2.334,7,0.166,11.333-0.334,21.833s0.273,10.814-0.5,21.667
		c-0.076,1.078,10.605,2.541,17.543,1.979c3.197-0.259,7.125-1.563,8.625-2.146c4.332-1.685,2.332-4,5.334-5
		c1.955-0.651,2.832-1.334-1.668-10.501c-3.744-7.63-3.9-21.009-2.166-34.499c3-23.333,4-40.333,3-50.333s0.42-13.337,0.332-14.333
		c-1.666-19.167-5.332-33.5-5.832-39s1-11.834-3-15.001c-1.961-1.552,0.561-10.371,1.332-12c3-6.333-0.5-5.5,1.334-15.5
		c1.098-5.983,5.5-49.5,6-58.5s0.25-47.75-1.75-55.75s-3-17.75-4.125-20.25c-1.025-2.28-0.404-8.143-1.375-10.5
		c-0.875-2.125-0.5-4.875-1.5-5c-3.508-0.438-14.678,8.132-37.25,9c-26,1-38.916,0.252-53.083-1.249s-21.705-0.458-26.917-1.501
		c-3.125-0.625-7.75-4.875-8.875-6C72.424,333.258,72.75,339.084,72.75,339.084z"/>
</g>
<path fill="#001233" d="M139.333,436.668c0,0,1.334-7.251,3.001-10.084c1.666-2.833,2-7.25,2.75-11.5
	c0.582-3.3,2.083-7.417,2.583-8.75c0.274-0.731,3.647-0.656,6.917-1.333c2.416-0.5,15.082-1.917,16.916-0.751
	s-11.583,5.168-12.166,8.251c-0.584,3.083,13.333,15.416,14.333,29.416c0.568,7.956,8.383,36.411,8.208,45.583
	c-0.133,6.968,1.75,19.125-6,29.375c-3.33,4.403-9.688,12.938-11.875,18.438c-1.396,3.51-1.063,0.688-1.75-1.625
	c-0.99-3.332-3.59-9.583-5.438-13.313c-3.23-6.522-4.172-15.409-4.438-20c-0.25-4.313-0.563-9.063-1.125-16.625
	c-0.937-12.594-4.201-26.925-6.313-33.125C140,436.125,139.333,436.668,139.333,436.668z"/>
<path fill="#001233" d="M148.75,404.75c0,0,2.309-6.25,1.924-8.75s20.011,0.25,23.858,2c3.849,1.75-11.317,3.21-14.622,3.834
	C155.934,402.585,148.75,404.75,148.75,404.75z"/>
<path fill="#041C3E" d="M82.083,686.501c0,0,9.667-33.501,9.667-46.251s-10.25-63-7.25-76.5s13-30,11.5-53S86,457.5,86.5,438
	s-0.5-52.25-0.75-60.5s-0.917-5.499-0.667,0.001s1.025,50.917,0.75,60.416c-0.417,14.417,8.851,55.152,9.667,72.834
	c1.25,27.083-8.917,36.75-11.583,53.25c-2.329,14.408,6.37,61.26,7.167,76.416c0.667,12.667-7.917,39.667-8.667,43.167
	S82.083,686.501,82.083,686.501z"/>
<path fill="#001233" d="M148.584,395.917c-0.168,4.25-1.883,9.107-2.5,11.167c-0.75,2.5-3.97,11.896-5.084,14.833
	c-3.666,9.667-2.584,0-3.584-2.083c-0.742-1.548-4.823-1.613-6.832-1.167c-3,0.667-1.25-3.083,4.5-5.083s5.416-2.001,6.332-4.417
	c0.918-2.416,1-4.667-6-4s-16.416,1.895-17.541,1.582c-1.071-0.298,6.964-6.349,10.875-7.624c3.833-1.25,10.44-2.511,11.916-2.791
	C145.5,395.417,148.626,394.835,148.584,395.917z"/>
<path fill="#10294D" d="M122.692,355.818c0,0,9.183,0.474,9.329,0.495c0.146,0.021,0.025,0.297,0.025,0.297
	s-8.396-0.396-8.854-0.458s-0.563-0.104-0.563-0.104L122.692,355.818z"/>
<path fill="#10294D" d="M161.844,354.813c0,0-0.016,0.234,0,0.25s2.875-0.5,3.75-0.667c0.613-0.117,2.697-0.771,2.697-0.771
	l-0.031-0.208c0,0-1.73,0.573-2.682,0.771C164.297,354.453,161.844,354.813,161.844,354.813z"/>
<path fill="#10294D" d="M135.791,356.458c0,0-0.063,0.281-0.047,0.297s7.662-0.109,8.287-0.109s1.094-0.042,1.094-0.042
	l-0.031-0.208c0,0-0.107,0.021-1.078,0.042C142.797,356.463,135.791,356.458,135.791,356.458z"/>
<path fill="#001233" d="M117.042,412.666c-0.417,2.334-1.666,5.416,2.417,3.25s12.543-4.557,14.125-5.499
	c4.332-2.583,3.166-3-0.918-2.5c-3.131,0.384-11.625,1.5-13.541,2.333S117.042,412.666,117.042,412.666z"/>
<linearGradient id="SVGID_10_" gradientUnits="userSpaceOnUse" x1="198.0488" y1="711.9219" x2="205.0925" y2="695.3281">
	<stop  offset="0" style="stop-color:#301A00"/>
	<stop  offset="0.2195" style="stop-color:#351E01"/>
	<stop  offset="0.4909" style="stop-color:#3C2415"/>
	<stop  offset="1" style="stop-color:#3C2415;stop-opacity:0"/>
</linearGradient>
<path fill="url(#SVGID_10_)" d="M179.594,686.672c0,0,5.74,4.494,6.573,7.661s2.5,10,5,12.667s5.75,4.917,9.667,5.833
	c2.008,0.47,14.669,1.703,17.833,1.834c4,0.166,7.501-1.834,9.167-3.334s2.333-4.5,1.333-3s-6.166-2.833-7.833-2.916
	c-2.025-0.101-9.25-2.334-11.084-2.584c-1.107-0.151-5.583-4.916-8.75-6.75s-6.333-1.75-9-2.75c-2.388-0.896-5.75-3.75-6.833-4.833
	c-0.791-0.791-1.75-1.583-3.333-2.333c-1.241-0.588-2.75-1.667-2.75-1.667L179.594,686.672z"/>
<linearGradient id="SVGID_11_" gradientUnits="userSpaceOnUse" x1="146.6426" y1="148.8335" x2="146.6426" y2="109.2437">
	<stop  offset="0" style="stop-color:#EDDDD6"/>
	<stop  offset="0.2993" style="stop-color:#EBDAD3;stop-opacity:0.7635"/>
	<stop  offset="0.5377" style="stop-color:#E4D1C8;stop-opacity:0.5752"/>
	<stop  offset="0.7551" style="stop-color:#D9C3B8;stop-opacity:0.4035"/>
	<stop  offset="0.9588" style="stop-color:#CBB0A2;stop-opacity:0.2426"/>
	<stop  offset="1" style="stop-color:#C7AB9D;stop-opacity:0.21"/>
</linearGradient>
<path opacity="0.76" fill="url(#SVGID_11_)" d="M150.459,111.5c0,0-2.376,0.292-3.959,0s-5.75-1.5-7.25-2.167s2.334,2.416,4,8.083
	s4.417,22.167,4.584,24.333c0.166,2.167-0.084,4.667-0.5,5.667c-0.418,1-0.918,1.417-0.918,1.417s2.445-1.767,4.604-3.977
	c1.223-1.251,3.354-4.607,3.354-4.607s-0.201-0.887-1.163-3.506c-1.003-0.244-2.003-7.143-2.44-11.265
	c-0.521-4.896-0.182-9.704-0.229-12.021C150.517,112.237,150.459,111.5,150.459,111.5z"/>
<path fill="#001233" d="M126.375,540.75c0,0-3.75,3.781-7.844,6.219c-2.979,1.773-11.531,6.406-7.406,5.906
	c1.972-0.239,4.584-0.745,7.281-2.094c2.188-1.094,3.238-2.318,4.375-2.219c0.713,0.063,1.455,2.084,1.354,4.5
	c-0.073,1.75-1.208,3.256-3.885,5.5c-4.316,3.619-11.651,9.173-11.563,9.719c0.154,0.944,9.27-4.223,16.281-10.781
	c0.969-0.906,1.446-4.546,1.688-5.406c1.594-5.688,0.654-8.224,0.469-8.563c-0.75-1.375-0.813-1.563-0.688-2.313
	S126.375,540.75,126.375,540.75z"/>
<path fill="#041C3E" d="M84.917,524.751c0,0,0.583,0.5,0.167,2.208s7.5-5.625,8.417-12.958c0.714-5.71-0.294-5.917-0.5-3.5
	c-0.333,3.916-3.167,9-4.667,10.75C87.027,522.774,84.917,524.751,84.917,524.751z"/>
<path fill="#041C3E" d="M84,501.167c0,0,0.25,1.167-0.167,3.667c-0.312,1.874,6.333-7.25,5.833-16.083
	c-0.418-7.389-1.667-8.25-1.333-3.917s-0.167,9.167-1.333,12.333C85.753,500.551,84,501.167,84,501.167z"/>
<path fill="#2A1402" d="M179.417,680.917c0,0,0.207,5.375,0.166,6.292s0.37,2.229,0.917,3.041c0.38,0.564,2.249,2.96,2.583,3.501
	c0.164,0.267,0.139-0.749,0.086-2.063c-0.007-0.158,0.229-0.126,0.229-0.126s-0.308-2.063-0.305-3.344
	c0.011-4.677,0.197-4.964,4.114-4.989c5.084-0.033,11.521-0.412,14.604-1.5c1.6-0.564,5.249-1.99,5.167-3.125
	c-0.109-1.511,1.297-2.365,1.192-2.589c-0.275-0.589-1.058-1.698-1.516-2.406s-23.072,2.891-24.364,3.058s-2.916,2.209-2.875,2.709
	S179.417,680.917,179.417,680.917z"/>
<path fill="#10294D" d="M152.541,355.75c0,0-0.063,0.281-0.047,0.297s3.922-0.412,4.547-0.412s1.422-0.172,1.422-0.172l-0.031-0.208
	c0,0-0.436,0.151-1.406,0.171C155.807,355.453,152.541,355.75,152.541,355.75z"/>
<g>
	<defs>
		<path id="SVGID_12_" d="M72.734,339.146l-0.25,2.125c0,0-1.75-0.916-2.417,9.75c-0.281,4.494,2.667,7.5,1.167,9.5
			s-0.083,40.917,1.917,46.917s0.627,23.658,1.25,27.084c2,11,10.167,64.999,9.667,69.499s-2.5,9-2.5,15s4.5,4,3.5,8s-5,24.5-5,28.5
			s-3,21.167,2,56.667s5.333,33.5,4.333,45s-1.427,10.403-2.833,17.333c-2.333,11.501-3.196,13.195,1.333,12.834
			c1.607-0.128,2.297,1.531,5.667,1.666c12.5,0.5,17.12-2.535,19.833-3.333c2.833-0.833,0.667-2.666,5.167-4.333
			c0.884-0.327-0.667-7.5-1.667-17.5s0-29,1-34s4.36-15.813,5.5-17.333c2-2.667,8-39,5.167-53.001c-0.8-3.951,4-12.499,1-16.833
			c-1.318-1.903,6.523-16.828,7.5-21.833c1.333-6.833-2.944-14.753-0.667-29.333c0.833-5.333,4.331-37.682,5.999-53.333
			c0.195-1.83,9.001,20.499,11.001,36.999s1.333,33.833,5.333,43.833s8.5,17.501,6.334,20.5c-1.273,1.762-2.34,4.492-0.5,6.667
			c1.832,2.167,3,2,1.5,11.333c-0.81,5.034,0.666,24.667,6.666,42.667s5.945,30.001,8,36.167c2.334,7,0.166,11.333-0.334,21.833
			s0.273,10.814-0.5,21.667c-0.076,1.078,10.605,2.541,17.543,1.979c3.197-0.259,7.125-1.563,8.625-2.146
			c4.332-1.685,2.332-4,5.334-5c1.955-0.651,2.832-1.334-1.668-10.501c-3.744-7.63-3.9-21.009-2.166-34.499
			c3-23.333,4-40.333,3-50.333s0.42-13.337,0.332-14.333c-1.666-19.167-3.025-20.272-3.525-25.772s1-11.834-3-15.001
			c-1.961-1.552,0.561-10.371,1.332-12c3-6.333-0.5-5.5,1.334-15.5c1.098-5.983,3.193-62.728,3.693-71.728s0.25-47.75-1.75-55.75
			s-3-17.75-4.125-20.25c-1.025-2.279-0.404-8.143-1.375-10.5c-0.875-2.125-0.5-4.875-1.5-5c-3.508-0.438-14.678,8.132-37.25,9
			c-26,1-38.916,0.252-53.083-1.249s-21.705-0.458-26.917-1.501c-3.125-0.625-7.75-4.875-8.875-6
			C72.409,333.32,72.734,339.146,72.734,339.146z"/>
	</defs>
	<clipPath id="SVGID_13_">
		<use xlink:href="#SVGID_12_"  overflow="visible"/>
	</clipPath>
	<path clip-path="url(#SVGID_13_)" fill="#001233" d="M163.334,551.834c0,0,2.166-8.167,3-10.5c0.833-2.333,2.5-10.833,3-8
		s0,7.167-1,10.167s-3.167,10.5-2.667,11.666s3.77-3.625,4.667-6c2.833-7.5-2.458-19.061,2.166-25.667
		c5.833-8.334,9.5-17,9.167-0.833c-0.196,9.551-2.833,12.333-7.167,22.667c-1.568,3.739-5.375,11.409-5,16.666
		c0.5,6.999,15,6.5,18,17s-0.5,19,0,27.75c0.336,5.883-0.095,37.316,1.334,40.584c2.333,5.334,3.946,10.806,6.166,4
		c2.5-7.666,5.001-24.166,7.667-43s2.825-22.96,3-24.667c0.667-6.5,1.5-17.333,1.667-13.166s9.334,21.333,5,43.5
		c-3.546,18.139-5.334,25.833-5.167,33.333s0.666,13.5,2.5,18.167s5.5,12.166,3.833,13.166s-4,8.667-7.333,9.167
		s-28.833-4.166-29.833-5.333s-0.501-6.5-0.334-11.5s0.727-13.222,1.667-19.334c2.667-17.333-0.028-26.602-2.667-34.833
		c-4.166-13-5.333-17.166-7.166-21.833C166,590.334,162,576.5,160,569.334S163.334,551.834,163.334,551.834z"/>
</g>
<path fill="#001233" d="M174.75,560c1.25,4.25-2-3.5,2.25-10.25s4.584,0.251,6.084,4.501s4,7.833,7.5,9.583
	c3.818,1.909,9.75,2,13-10.25c0.32-1.209,1.75-10.083,3-0.333S209,564.25,206.5,568.5s-4.5,11.25-8,21.25
	s-4.916,20.002-7.333,19.501c-2.177-0.451-2.333-7-0.833-14.25S194.75,575.75,191,572s-10.75-6.5-12.5-7.75S174.75,560,174.75,560z"
	/>
<path fill="#001233" d="M204.307,535.062c0.167,6.75-3.331,8.313-2.75,4.25c0.584-4.083-0.5-6.75-3.333-7.5s-6.94-1.02-10.417,1.083
	c-3.583,2.167-4.583,3.5-6.75,6.167c-2.218,2.729-8.333,10.417-2.333,0.917c2.458-3.892,7.25-8.251,10.75-9.584
	c3.279-1.249,7.932-1.463,10.25-0.416C202.307,531.145,204.248,532.676,204.307,535.062z"/>
<linearGradient id="SVGID_14_" gradientUnits="userSpaceOnUse" x1="162.4863" y1="680.8125" x2="162.4863" y2="419.458">
	<stop  offset="0" style="stop-color:#10294D"/>
	<stop  offset="0.2764" style="stop-color:#0C2548"/>
	<stop  offset="0.7874" style="stop-color:#01193A"/>
	<stop  offset="1" style="stop-color:#001233"/>
</linearGradient>
<path fill="url(#SVGID_14_)" d="M178.875,680.75c0.344,0.094-0.5-0.063,0.25,0.063c0.844-18.906,1.781-39.219-0.156-57.219
	c-3.504-32.553-13.779-126.107-14.875-138.813c-1.334-15.458-8.094-36.906-13.719-52.656c-5.077-14.217-6.375-13.875-5-11.25
	s15.834,36.833,18.334,63.708s13.041,121.292,15.041,139.042C180.029,634.981,180.375,651.125,178.875,680.75z"/>
<path fill="#BCBEC0" d="M10.458,419.834c-0.292,0.999-0.875,2.667,0.25,3s84.708,12.001,86.5,12.25s3.208,0.166,3.542-2.75
	c0.473-4.134,7.875-66.749,8-69.917c0.112-2.847,0.041-3.333-3.333-3.583S25.292,352.084,24.25,352s-1.625,0.75-1.75,1.5
	S10.75,418.835,10.458,419.834z"/>
<path fill="#939598" d="M10.094,421.469c0,0-0.317,1.143,0.844,1.313c1.281,0.188,85.492,12.062,86.75,12.188
	c2.188,0.219,2.688-1.094,2.906-3.281c0.202-2.018,7.981-69.584,8.031-70.75c0.052-1.208-0.578-1.813-1.578-1.938
	c-0.992-0.124,0.328,0.031,0.734,0.266c0.46,0.266,0.828,0.875,0.75,1.641c-0.123,1.207-8.1,70.662-8.188,71.344
	c-0.156,1.219-0.781,2.656-2.563,2.5c-1.162-0.102-86.24-11.99-86.906-12.156S10.094,421.469,10.094,421.469z"/>
<ellipse fill="#E6E7E8" cx="58.583" cy="388.929" rx="7.25" ry="7.156"/>
<ellipse fill="#E6E7E8" cx="49.667" cy="397.416" rx="3" ry="3.083"/>
<ellipse fill="#E6E7E8" cx="56.829" cy="401.25" rx="3.162" ry="3.249"/>
<ellipse fill="#E6E7E8" cx="65.167" cy="399.259" rx="3.333" ry="3.426"/>
<g>
	<linearGradient id="SVGID_15_" gradientUnits="userSpaceOnUse" x1="214.749" y1="172.5742" x2="214.749" y2="440.6255">
		<stop  offset="0" style="stop-color:#F2E2DB"/>
		<stop  offset="0.8217" style="stop-color:#F0E0D9"/>
		<stop  offset="1" style="stop-color:#EDDDD6"/>
	</linearGradient>
	<path fill="url(#SVGID_15_)" d="M213.333,223.125c-1.25-6.5,1.5-15.25,0.25-26.25c-0.803-7.069-2.229-17.023-5.066-24.301
		l-16.428,35.546c-0.111,1.183-0.271,2.417-0.506,3.505c-0.75,3.5-1.25,24.25-1.25,26s0.75,15.25,0,19.25
		c-0.695,3.71-0.961,5.052-0.994,5.228l-0.002,0.028c0.074,0.131,5.748,10.025,5.996,14.744c0.25,4.75-1.25,13.75-0.25,18.25
		s3.5,16.25,7.5,24.5s5.5,16.75,7.25,21.75s3.25,14.5,5.75,21.25s4.5,12.5,3.25,17s-5,7-6,10.25s-1.25,9-0.75,14s-0.75,10.5-1,13.25
		s0.75,5.5,1.25,6.5s2.75,2,4.5,0.25s3.75-4.25,4-8.75s0-8.25,0.75-8.25s2,2.5,2,2.5s0,4.25,0,6s0.25,5,0.5,6.75s0,3.5-3.75,3.25
		s-2.5-1.5-6,1.5s-4.75,2.75-3.25,4s5.75,2,5.75,2s1.5,0.75,0,2.75s1.25,5,1.25,5s3-2.5,5.25-5s3.75-3.5,5.75-3.75
		s5.25-3.75,6.25-4.75s2.75-1.25,2.75-3.75s1.25-8,1.75-10s0.5-6-0.5-12.5s-2.5-16-2.25-19s0-4.75-0.25-6.25s-0.5-3.75-1.25-8.25
		s-1.5-29.25-1.25-34.75s-1.25-25.75-1.75-31.25s-2-14.75-4.75-21.5s-6-10-7.5-15.75s-2-16.75-3.25-24
		S214.583,229.625,213.333,223.125z"/>
	<linearGradient id="SVGID_16_" gradientUnits="userSpaceOnUse" x1="51.1934" y1="175.0059" x2="51.1933" y2="434.7583">
		<stop  offset="0" style="stop-color:#F2E2DB"/>
		<stop  offset="0.8217" style="stop-color:#F0E0D9"/>
		<stop  offset="1" style="stop-color:#EDDDD6"/>
	</linearGradient>
	<path fill="url(#SVGID_16_)" d="M65.125,430.542c-2.208,0.875-4.542-1.417-6.542-2.667c-0.441-0.276-0.846-0.662-1.217-1.117
		c-1.31-1.604-2.198-4.074-2.783-5.633c-0.75-2-1.25-3.75-1.25-3.75s3.25,6.5,5.5,8.5s2.25,4,5,3.5s3.25-0.25,2.5-2s-0.5-3.75-1-5
		s-1.75-3.5-3-5.5s-3.25-7.5-3.5-10s-1.25-4.75-3.5-7s-6.5-4.25-7.5-5.25s-2-9-1.75-11s14.5-36.25,18.5-48.25s5.5-22.25,7.5-29.75
		s-0.25-13.75-0.25-17s1-27.75,2.25-31.5s-0.25-14.5-0.5-22c-0.223-6.681-0.643-8.217-0.732-14.125l-0.768-8.958l-28.395-37.036
		c-0.038,0.205-0.077,0.411-0.105,0.619c-1.25,9.25-3.75,32.5-2,41.25s2.5,8.5,1.5,18s-1.5,27.5-0.5,34.25s-1.5,11.75-3.5,16
		s-4.25,17.25-4.25,24s-1.75,9-2.5,17s-1,18.75-0.75,27.25s-0.25,13-0.75,21s-2.75,13-3,20s1.75,15,3.25,21.75s2.5,9,4.25,10.5
		s5.25,5,7.75,5.5s4-0.25,6.25,0s8,1.5,10.5,2.25s3,0.25,3.75-0.25s3.583-1.792,3.833-3.292
		C67.417,430.833,65.292,430.584,65.125,430.542z"/>
</g>
<path fill="#00AEEF" d="M103.667,122c0,0-2.333,3.667-0.333,7.667s3.667,6.667,5.333,10.667s12,9,17.667,17.333
	c5.666,8.333,6.333,9.667,6.333,9.667s3.667-8.667,10.667-15.333s7-6.667,7-6.667s3.666-5,4.333-7.333s-3.5-10.167-3.5-10.167
	S164.27,138.668,164.375,142c0.125,3.958-1.604,2.875,7.063,5.875s21.896,9.792,24.563,11.792s6.667,2.833,9.167,6.5
	c1.367,2.005,9.5,16.834,8.5,21.5s1.666,11,1.333,14s2.334,7-0.666,13.333s-2,6,0,8s5.666,3.667,3.666,6.667
	s-1.666,6.666,0.667,9.333s3.334,4.667,1.667,8.333s-1.334,7.667,0.333,11s-2.333,5.333,1.667,8.333s5,3.042,5.666,5.708
	S221.001,283,213.334,284S195,288.334,194,285.667s-1.233-10.892-0.333-12.333c0.833-1.333-1.166-4.167-1.833-5.167
	s-3-4.833-2.5-8.5c0.425-3.116-2.333,8.333-1,12.333s4.332,14,3.666,17.667s1,8,3,20.333s2.097,15.905,3.334,19
	c1.666,4.167,3.25,15.083,3.083,15.5s-26.75,14.834-35.75,17.167S155,364,155,364l-7.333-19.667c0,0-4.318,8.743-4.042,11.417
	c0.375,3.625,1.375,8.875,1.375,8.875s-24.292,0.083-33.625-2.25s-37.94-10.129-40.542-11.042c-1.396-0.49-1.208-1.583-0.417-4.917
	c2.185-9.203,0.25-11.083,3.25-19.75s3-21,5-27.333S84.333,283,81,271.5s-4.333-11.5-5-11.833s-1.667,6.667-0.667,10.667
	s-1,5.333-2.333,7s-1.333,3.333,0,4.333s0.667,3.167,0.5,5.833c-0.279,4.463-3.166,3.5-9.833,2.167s-11.167-2.833-18.5-6
	c-7.408-3.199-9-3.833-5.167-11.333c3.915-7.66-2.667-10.333-1.667-14.333s3.333-7,2.667-13.667s2.667-9-0.333-12.333
	s-6-3.333-3.667-11.667s-1-12.667,0.667-22.667S40.896,189.302,42,177c0.875-9.75,3.982-10.013,10.25-14.625
	c6.625-4.875,4.292-3.208,19.625-12.25c15.024-8.859,14.458-7.458,18.125-12.792s5.333-7.333,8.333-10.667S103.667,122,103.667,122z
	"/>
<path fill="#008CC1" d="M86.75,141.25c0,0,0.209,6.487-2,13.75c-0.292,0.958-0.75,2-0.75,2s10-13.75,20.25-13.25s9,2.75,10.5,7.75
	s1.75,4,4.25,4.25s4.708-0.125,7.459,3.125c2.75,3.25,3.75,5.25,5.25,7.25s0.666,2,1.375,0.333c0.707-1.667-0.042,0.458-0.25,2.542
	c-0.275,2.748-0.584,11.25,0.666,17.5s4.25,27,4.5,52s2.5,53.5,5.25,72.25s2.75,26.5,3.75,30.75s0.667,2.833,0.667,2.833
	s-2.729,5.229-3.729,9.542c-0.219,0.945,1.158-6.419,1.313-15.125c0.148-8.37-1.001-19.574-2.563-28.313
	c-3.25-18.188-5.438-60.5-5.188-70.25s-3.041-47.271-4.541-55.521s0.666-11.167-1.834-15.917s-9.68-12.418-11.583-12.458
	c-1.958-0.042-3.542-0.792-6.292-2.792s-4.375-5.625-9.125-6.375s-5.792,0.333-9.792,2.583S89.25,152.5,86.75,154.5
	s-3.167,3.333-3.167,3.333s1.667-3.833,2.333-8.417C86.863,142.909,86.75,141.25,86.75,141.25z"/>
<path fill="#008CC1" d="M135,162.667c0,0,4.028-6.146,6.375-8.792c2.938-3.313,7.646-6.643,9.625-9.5s2.271-3.146,1.938-5.813
	s-0.91-4.381-1.188-5.938c-0.313-1.75-0.275-1.719-0.5-3.125c-0.25-1.563-0.25-2-0.25-2s1.615,1.491,2.25,2.125
	c0.938,0.938,2.673,10.249,1.313,12.063c-0.75,1-2.375,3.25-3.875,4.75c-2.854,2.853-5.283,4.526-7.563,6.75
	C139.688,156.542,135,162.667,135,162.667z"/>
<path fill="#008CC1" d="M164.063,147.375c0,0-3.727-6.516-4.188-5.208c-1.041,2.958-0.834,8.625-0.834,8.625
	s-0.472,0.509-1.688,1.292c-0.305,0.197-0.699,1.075-1.375,3.563c-0.682,2.511-1.5,5.333-1.938,5.25
	c-0.518-0.099,1.214-3.682,1.125-5.896c-0.066-1.667-1.678-0.759-2.072-0.594c-3.719,1.563-4.552,1.99-7.364,3.365
	c-2.972,1.453-8.667,4.917-8.667,4.917s5.682-3.973,9.354-5.854c5.125-2.625,5.726-2.947,7-3.583
	c2.667-1.333,5.562-2.854,5.562-2.854s-0.191-9.427,2.168-10.208c1.088-0.361,2.797,1.108,2.822,2.469
	C164,144.375,164.063,147.375,164.063,147.375z"/>
<path fill="#00A5E3" d="M40.25,274.5c0,0,15-4.75,19.5-6.25s4-1.5-2-3.5s-8-2.5-12.5-2.25s-4.25-0.25-4.5-2.75s-0.75-2.25,0.25-5
	s2.25-7.5,2.25-11s-1.25-9.25,0.75-8s3.5,4.75,6.5,8.5s6.75,8.5,11.25,10s8.125,1.813,9.875,1.813s2.25,1.25,3,1.25s1.5-1.5,0.25-3
	S72,253.5,64.75,250.75s-7.25-9-10.5-13.5s-4.5-0.25-6.75-2.5s-6.25-3-6.75-4.5s-4-2-3.25-4.75S39,215,40,219.25s0.75,5.25,3.5,8
	s7.75,7.25,8.25,4.25s-1-1.75-5.25-5.5c-3.379-2.982-3.5-4.75-3.75-7.5s0-6,1.75-13.25s1.25-6,3.75-12.5s4.5-10.5,4.75-14.75
	s-7.25-9.75-3.5-9.25s13.75,11.75,17.25,23s8,13.5,8,23.75c0,6.406,3.906,12.031,5.066,14.799c0.696,1.662,0.403,2.294-2.316,1.451
	c-7.25-2.25-14-27.75-13.75-30s-6.25-13.5-4-1S64.5,228.5,67.5,232s10.128,2.74,10.5,8.25c0.313,4.625-0.063,6.625-2.563,1.875
	S70.75,240.5,68.5,237.25s-8.75-10-5.75-3.75s5.75,15,9.75,15.5s3,1.25,3.5,4.25s2.438,2.229-0.813,5.563s-4,10.563-3.5,12.813
	s3.438,1.708,0.938,5.125S64.75,280,63,282s1.688,4.188,3,4.75s6.188,0.25,2.875,2.688c-3.568,2.625,4.229-1.465,4.625-3.188
	c1.25-5.438-2.313-4.625-1.563-7.125s2.772-2.789,3.5-5.5C76.125,271.063,73,264.75,76.563,258c0.866-1.641,1.688-0.313,0.938-4.813
	s1-9.438,1.25-11.938s0.023-5.078,1.762-9.289S74.75,222.5,76,215s-5-17.25-7.5-24s-12.375-24.125-18.375-24.125
	s-7.625,3.25-7.875,6.75c-0.375,5.243-3.75,18.625-4.75,23.875s0.25,11,0.25,15s-2.75,6.25-2.5,11.75S37,227,39,232s3.25,17,1.25,19
	s-3.5,5-2.75,8s3.75,5,3.25,8.5s-2.5,8.25-3,9.25s-0.25,2.5,0.75,1.5S40.25,274.5,40.25,274.5z"/>
<path fill="#00A5E3" d="M78.836,214.587c-0.655,5.237,0.655,8.838,2.619,12.438s1.637,4.91,0,12.111s-1.636,9.82-2.619,15.058
	s-1.637,7.201-1.637,7.201s5.565,7.528,5.237,15.057s-1.309,14.73-2.619,18.331s-2.619,13.094-3.273,17.676
	s-2.946,14.403-3.928,17.349s-0.836,6.193-1.309,10.147c-0.932,7.794-1.922,10.148-1.588,10.732
	c0.5,0.874,10.094,3.219,10.094,3.219s-0.977-4.458,1.969-7.404s9.493-7.529,3.601-5.892s-11.784-0.654-6.874-4.583
	s17.022-14.73,10.802-12.439s-8.838-6.546-8.838-6.546s27.77-8.557,22.259-11.457c-6.22-3.273-18.985-0.655-15.058-8.838
	s13.748-28.478,18.658-32.733s17.676-17.676,18.331-24.877s3.273-15.712-3.601-8.511s-15.384,20.295-20.294,27.169
	s-18.658,40.262-16.04,29.132s0-12.438-1.637-19.313s0.983-8.51,2.619-11.457s3.928-2.946,3.601,3.273s0.655,9.166,4.255,3.601
	s11.457-10.802,9.82-14.73s-1.964-4.583-7.201-5.237s-13.421-1.637-11.457-4.583s5.892-2.619,13.748-2.946s19.64-7.201,7.529-10.475
	s-18.331-5.892-20.622-9.493s-11.457-18.33-2.946-19.64s21.604,13.093,15.384,1.636s-8.51-10.474-13.42-8.51
	s-10.475,8.183-9.493,12.438S78.836,214.587,78.836,214.587z"/>
<path fill="#00A5E3" d="M57.001,167.084c2.371,2.845,6.546,7.529,6.874,9.166s2.85-0.615,5.795-3.561s6.875-12.112,7.529-14.403
	s5.237-9.819-2.619-4.91S55.364,165.121,57.001,167.084z"/>
<path fill="#00A5E3" d="M77.199,173.344c4.255-6.219,5.237-14.402,7.856-16.694s8.183-1.964,4.91,5.892s-3.601,11.13,4.255,15.058
	s30.442,18.658,16.367,11.784s-18.985-6.219-26.187-7.201s-10.148,0-9.166-3.601S77.199,173.344,77.199,173.344z"/>
<path fill="#00A5E3" d="M140.701,303.622l0.654,4.583c0,0-1.309,1.31-3.272,6.22s3.273,3.928,4.255,4.583
	c0.982,0.655,1.965,10.475,1.965,10.475s-19.64,5.564-35.68,10.475s-22.259,2.292-12.766-4.583s25.532-8.838,32.406-16.367
	s9.165-13.093,10.802-14.075S140.701,303.622,140.701,303.622z"/>
<path fill="#00A5E3" d="M136.119,255.831l0.327,3.928c0,0-6.548,6.219-2.946,5.237s3.602-0.982,3.602-0.982l-0.328,3.601
	c0,0-7.529,1.309-14.075,7.528c-6.546,6.22-14.075,13.748-4.255,8.511s19.313-6.546,10.802,1.31s-3.601,5.564-13.421,8.183
	s-18.985,7.201-18.331,2.619s3.601-8.838,9.82-13.093s12.439-10.475,17.676-16.694C130.227,259.759,136.119,255.831,136.119,255.831
	z"/>
<path fill="#00A5E3" d="M151.75,319.25c0.25,1.125,0.75,5.875,1.25,7.25s10.093,6.569,13.963,3.731
	c3.869-2.837,6.706-6.965,16.252-11.093s14.188-5.159,7.224-6.965s-8.64-2.573-14.938,0.577c-7,3.5-6.832,3.702-12.25,5.25
	S151.5,318.125,151.75,319.25z"/>
<path fill="#00A5E3" d="M156.385,344.162c0,0-1.003,8.672,2.078,11.302c3.082,2.629,13.659-3.046,19.851-12.591
	s5.675-11.352-1.29-6.966s-9.545,6.966-12.383,7.998S157.159,340.808,156.385,344.162z"/>
<path fill="#00A5E3" d="M194.05,307.787c-4.644-6.449-9.029-5.159-14.188-8.771s-7.996-10.577-3.869-12.383
	s4.643-7.223,5.417-14.447s-2.837-19.606,0.774-11.093s4.128,15.221,4.644,20.638s-6.707,5.418-1.806,11.093s3.354,2.58,5.417,6.965
	S194.05,307.787,194.05,307.787z"/>
<path fill="#00A5E3" d="M187.858,259.029c1.548-6.707,3.68-28.881,2.267-41.529c-2.291-20.5-0.271-32.286,3.209-37.333
	c3.333-4.833,4.166-5.25,4.5-11.833c0.409-8.074-0.127-7.505-0.5-7.833c-0.336-0.296,2.666,9.813-3.584,18.5
	c-1.389,1.931-6.875,6.25-4.375,36.438c0.688,8.301,1.691,35.329-4.5,22.688s-12.291-21.105-8.75-10.875
	c3.375,9.75,13.281,29.715,2.704,19.396S162.934,233.412,157,236.25s-12.25,4.255-12.25,8.125s5.497-0.335,9.625-1.625
	s11.25-2.125,17.625,2.25c5.868,4.027,9.668,7.064,11.989,11.192s3.096,6.707,3.354,4.385S187.858,259.029,187.858,259.029z"/>
<path fill="#00A5E3" d="M202.25,164c0,0,3.416,4,4.75,6.667s0.001,12-6.666,19.333s-14.333,11.333-9,6.333s13.334-14,14-19
	s0.332-3-3.334,1.333S189.334,189,195.667,183s6.001-7,6.667-11.667S198.5,161.333,202.25,164z"/>
<path fill="#00A5E3" d="M190.667,214.333C190.75,211.75,203,205.667,208,198s4.001,0,0.334,4.333s-8.057,9.193-4.834,12.667
	c3.208,3.458,5.583,5.708,8.25,7.375s8.875,4.875,3.917,7.958c-4.869,3.028-7.542,4.417-3.333,1.333
	c4.898-3.588,2.041-5.042-0.959-8.042s-2.707-2.625-7.041-6.958s-13.209-6.472-13.209,0.708c0,7.75,4.542,3.958,8.542,5.625
	s8.001,3,1.667,8S192,237.333,200,241s1.667,8.75-6,13.75s-6.25,11.875,7,8.583c8.418-2.091,17,1,7,6.333s-1,6,2.667,5.667
	s3.667,1.333-5,3s-13.667,4.333-11.667-2s6-5.333,8.667-7.333s-19.501-2.167-12.167-11.5s17.583-11.583,6.875-16.875
	c-5.32-2.629-6.398-1.252-6-7.625c0.25-4,18.125-2.875,6.959-7c-7.691-2.841-7.459-1.583-7.459-5.25
	S190.584,216.917,190.667,214.333z"/>
<path fill="#00A5E3" d="M218.125,248.25c0,0-10.75,4-14.5,8.125c-0.991,1.09,2.043,2.959,8.709,3.292s9.666,1.333,8.333-1.333
	s-19.542,0.792-16.042-2.208c4.888-4.189,13.083-4.417,13.75-5.75S219.458,247.583,218.125,248.25z"/>
<path fill="#00A5E3" d="M218.667,239c1.24,0.827,0.333,4-4.667,4.333s-9-2-4-5s6.001-5.667,6.334-3.333s-4.667,3.333-3.667,5
	S217.667,238.333,218.667,239z"/>
<path fill="#00A5E3" d="M190.667,157c5.481,2.741,3,7.667-4,15s-32,20.333-20.333,8C178,167.667,173,161.667,169,156.667
	s-2.757-11.492,0-7c9,14.667,7.667,16.333,12.667,17.333s9.667-4.667,5.667-7.667s-17.334-11.667-10.667-8.667
	S188.667,156,190.667,157z"/>
<path fill="#00A5E3" d="M146,265c-0.5,1.75-0.75,4.5-0.25,5.5s24,5.25,13.5,12.5s-11.5,6.75-11.5,8.75s0,2,0.5,3.75
	s14.25-9.75,18.75-13.75s6-8.25-1.75-11.75S146.5,263.25,146,265z"/>
<linearGradient id="SVGID_17_" gradientUnits="userSpaceOnUse" x1="47.6963" y1="286.2017" x2="47.6963" y2="427.1772">
	<stop  offset="0" style="stop-color:#F4E6DE"/>
	<stop  offset="0.9259" style="stop-color:#F3E3DC;stop-opacity:0.0741"/>
	<stop  offset="1" style="stop-color:#F2E2DB;stop-opacity:0"/>
</linearGradient>
<path fill="url(#SVGID_17_)" d="M65.75,293.25c-0.25-1.125-2.708-1.346-5.875-2.125c-7.625-1.875-13.125-5.375-13.625-4.875
	s-3.438,9.25-4,12.125S40.717,307.81,39.5,315c-0.896,5.292-3.339,16.529-3.75,25.333c-0.417,8.917-2.257,25.079-3.375,31.917
	c-2.125,13-4.498,22.454-3.75,27.875c1,7.25,1.75,10.125,4.375,18.875c0.807,2.689,3.413,3.14,5,3
	c2.125-0.188,7.268-1.075,9.188-1.75c2.313-0.813,4.5-1.813,4.313-3.813c-0.205-2.182,1.542-0.796,2.875,1.813
	c1.438,2.813,3.125,5.188,4,6.125s2.688,2.313,3.375,2.625s1.438,0.188,2.25-0.188c0.627-0.289,1.563-0.688,1.5-1.688
	s0.313-2.375-2.313-6.438c-2.454-3.798-2.75-5.563-3.5-7.75c-0.964-2.811-1.092-4.696-1.375-5.75
	c-1.125-4.188-4.188-6.313-7.25-8.188c-2.646-1.62-3.688-0.875-4.563-5.688c-0.473-2.601-0.604-3.932-0.75-7.438
	c-0.063-1.5,0.875-3,3.063-8.75c1.571-4.129,12.408-31.992,14-36c1.688-4.25,2.467-8.88,2.938-11.625
	c0.75-4.375,0.962-7.121,1.125-12c0.125-3.75-0.124-6.467-0.375-11.5C66.25,299,66,294.375,65.75,293.25z"/>
<linearGradient id="SVGID_18_" gradientUnits="userSpaceOnUse" x1="221.2598" y1="278.9917" x2="221.2598" y2="440.0054">
	<stop  offset="0" style="stop-color:#F4E6DE"/>
	<stop  offset="0.9259" style="stop-color:#F3E3DC;stop-opacity:0.0741"/>
	<stop  offset="1" style="stop-color:#F2E2DB;stop-opacity:0"/>
</linearGradient>
<path fill="url(#SVGID_18_)" d="M203.375,288.25c-1.332,0.533,8.124,23.084,9.458,29.917s6.422,34.25,7.167,42.333
	c0.833,9.041,1.916,16.834,0.25,20s-4.563,5.824-6,8.125c-1.667,2.667-1.795,8.121-1.875,11.125
	c-0.083,3.125,0.75,5.875,0.125,10.125c-0.656,4.465-0.897,8.916-0.75,9.875c0.333,2.167,1.265,5.51,3.625,2.625
	c3.375-4.125,4.417-8.917,4.25-11.25c-0.239-3.34,0.559-5.707,0.75-5.75c1.5-0.333,3.482,2.998,3.375,4.125
	c-0.25,2.625-0.125,6.625,0.125,9.375s1.625,5.25,0.125,6.75c-1.7,1.7-2.5,3.375-3,4.375s-2.5,2.541-3,3.375s-2.166,3.458-1.5,4.625
	s0.958,2.416,1.375,1.875c1.732-2.248,5.126-5.709,6.292-6.875s2.666-2,4.333-2.333s5.501-3.333,6.167-4.333s2.176-1.805,2.5-4.334
	C238,415.5,240,413.666,239,405.5s-1.833-10.666-2.333-15.333s0-6.125-0.167-11.292c-0.164-5.066-1.472-11.632-1.875-15.625
	c-1.25-12.375-0.75-35.25-1.75-47.625c-0.578-7.151-0.625-18.125-3.375-28c-1.104-3.964-2.473-9.57-3.625-8.5
	c-2.333,2.167-7.708,5.333-11.375,6.5C211.939,286.44,207.125,286.75,203.375,288.25z"/>
<path opacity="0.87" fill="#3C2415" d="M126.25,54.188c0.688-0.5,5.625-3.625,7.875-3.688s4.058,0.824,5.625,1.438
	c1.438,0.563,5.357,1.641,4.875,2.688c-0.375,0.813-3.5,0.875-5.313,0.438s-2.938-1.313-4.75-1.313
	c-1.115,0-5.597-0.019-7.313,1.125C125.938,55.75,125.563,54.688,126.25,54.188z"/>
<path opacity="0.87" fill="#3C2415" d="M151.875,55.563c-0.063-1.375,2.748-2.438,4-2.438c2.563,0,3.392,0.819,4.5,1.625
	c1.375,1,1.705,2.756,1.188,3.188c-0.375,0.313-0.5-0.875-2.625-1.875c-0.759-0.357-1.75-0.813-3.813-0.625
	C152.988,55.632,151.932,56.817,151.875,55.563z"/>
<path fill="#FFFFFF" d="M153.031,60.969c0,0,0.75,2.219,1.906,2.531c1.434,0.388,2,0.188,2.688,0.375S159,64.219,159,64.219
	s-0.063-2.656-1-3.219s-1.594-0.844-2.469-0.844C154.563,60.156,153.031,60.969,153.031,60.969z"/>
<g>
	<defs>
		<path id="SVGID_19_" d="M140.854,60.5c0,0-2.5-3.25-4.75-3.25s-3.5,0.938-4.438,1.5c-0.852,0.511-2.125,1.688-2.125,1.688
			s1.398,0.595,2.313,0.813c1.313,0.313,3.168,0.78,4.563,0.688C139.229,61.75,140.854,60.5,140.854,60.5z"/>
	</defs>
	<clipPath id="SVGID_20_">
		<use xlink:href="#SVGID_19_"  overflow="visible"/>
	</clipPath>
	<ellipse clip-path="url(#SVGID_20_)" fill="#00486C" cx="136.979" cy="59.594" rx="2.563" ry="3.344"/>
</g>
<g>
	<defs>
		<path id="SVGID_21_" d="M153.031,60.969c0,0,0.75,2.219,1.906,2.531c1.434,0.388,2.016,0.297,2.703,0.406
			c0.703,0.112,1.359,0.313,1.359,0.313s-0.063-2.656-1-3.219s-1.594-0.844-2.469-0.844
			C154.563,60.156,153.031,60.969,153.031,60.969z"/>
	</defs>
	<clipPath id="SVGID_22_">
		<use xlink:href="#SVGID_21_"  overflow="visible"/>
	</clipPath>
	<ellipse clip-path="url(#SVGID_22_)" fill="#00486C" cx="156.666" cy="61.788" rx="2.438" ry="3.181"/>
</g>
<path fill="#D1BFB6" d="M156.125,75.625c0,0,2.875-2.125,2.125-4.5s-2-3.5-3.063-5c-0.905-1.278-2.063-3-3.063-4.75
	s-0.375-3.5-0.5-4s0.563,3,5.375,10.25c2.588,3.899,2.25,5.75,1.125,6.625S156.125,75.625,156.125,75.625z"/>
<linearGradient id="SVGID_23_" gradientUnits="userSpaceOnUse" x1="99.3774" y1="77.7715" x2="107.4009" y2="77.7715">
	<stop  offset="0" style="stop-color:#EDDDD6;stop-opacity:0.25"/>
	<stop  offset="0.2993" style="stop-color:#EBDAD3;stop-opacity:0.1752"/>
	<stop  offset="0.5377" style="stop-color:#E4D1C8;stop-opacity:0.1156"/>
	<stop  offset="0.7551" style="stop-color:#D9C3B8;stop-opacity:0.0612"/>
	<stop  offset="0.9588" style="stop-color:#CBB0A2;stop-opacity:0.0103"/>
	<stop  offset="1" style="stop-color:#C7AB9D;stop-opacity:0"/>
</linearGradient>
<path fill="url(#SVGID_23_)" d="M104.792,72.333c1.039,0.56,1.25,1.5,0.792,3s-0.917,2.541-0.125,3.583s2.792,3.917,1.542,4.75
	s-5.333-2.583-5.708-3.583s-2.333-5.667-1.833-6.708s2.5-1.583,3.042-1.625S104.25,72.042,104.792,72.333z"/>
<g>
	<defs>
		
			<rect id="SVGID_24_" x="97.987" y="343.254" transform="matrix(0.2648 -0.9643 0.9643 0.2648 -270.5169 360.3544)" width="6.178" height="28.679"/>
	</defs>
	<clipPath id="SVGID_25_">
		<use xlink:href="#SVGID_24_"  overflow="visible"/>
	</clipPath>
	<g clip-path="url(#SVGID_25_)">
		<path fill="#BCBEC0" d="M10.458,419.834c-0.292,1-0.875,2.668,0.25,3c1.125,0.334,84.708,12.002,86.5,12.25
			c1.792,0.25,3.208,0.166,3.542-2.75c0.473-4.133,7.875-66.749,8-69.916c0.112-2.847,0.041-3.333-3.333-3.583
			s-78.667-6.666-79.708-6.75s-1.625,0.75-1.75,1.5S10.75,418.836,10.458,419.834z"/>
		<path fill="#939598" d="M10.094,421.469c0,0-0.317,1.143,0.844,1.313c1.281,0.188,85.492,12.063,86.75,12.188
			c2.188,0.219,2.688-1.094,2.906-3.281c0.202-2.018,7.981-69.584,8.031-70.75c0.052-1.208-0.578-1.813-1.578-1.938
			c-0.992-0.124,0.328,0.031,0.734,0.266c0.46,0.266,0.828,0.875,0.75,1.641c-0.123,1.207-8.1,70.662-8.188,71.343
			c-0.156,1.219-0.781,2.656-2.563,2.5c-1.162-0.102-86.24-11.99-86.906-12.156S10.094,421.469,10.094,421.469z"/>
	</g>
</g>
</svg>
